<svg xmlns="http://www.w3.org/2000/svg" version="1.1" xmlns:xlink="http://www.w3.org/1999/xlink" xmlns:svgjs="http://svgjs.dev/svgjs" width="2000" height="2000" viewBox="0 0 2000 2000"><g transform="matrix(1,0,0,1,-0.28443113772425477,-0.28443113772459583)"><svg viewBox="0 0 334 334" data-background-color="#ffffff" preserveAspectRatio="xMidYMid meet" height="2000" width="2000" xmlns="http://www.w3.org/2000/svg" xmlns:xlink="http://www.w3.org/1999/xlink"><g id="tight-bounds" transform="matrix(1,0,0,1,0.04749999999998522,0.04750000000001364)"><svg viewBox="0 0 333.90454557049503 333.90454557049503" height="333.90454557049503" width="333.90454557049503"><g><svg></svg></g><g><svg viewBox="0 0 333.90454557049503 333.90454557049503" height="333.90454557049503" width="333.90454557049503"><g><path d="M0 166.952c0-92.205 74.747-166.952 166.952-166.952 92.205 0 166.952 74.747 166.953 166.952 0 92.205-74.747 166.952-166.953 166.953-92.205 0-166.952-74.747-166.952-166.953zM166.952 328.023c88.957 0 161.071-72.114 161.071-161.071 0-88.957-72.114-161.071-161.071-161.07-88.957 0-161.071 72.114-161.07 161.07 0 88.957 72.114 161.071 161.07 161.071z" data-fill-palette-color="tertiary" fill="#636365" stroke="transparent"></path><ellipse rx="160.27418187383762" ry="160.27418187383762" cx="166.95227278524752" cy="166.95227278524752" fill="#636365" stroke="transparent" stroke-width="0" fill-opacity="1" data-fill-palette-color="tertiary"></ellipse></g><g transform="matrix(1,0,0,1,77.47498348046533,71.17305217166896)"><svg viewBox="0 0 178.95457860956438 191.55844122715712" height="191.55844122715712" width="178.95457860956438"><g><svg viewBox="0 0 178.95457860956438 191.55844122715712" height="191.55844122715712" width="178.95457860956438"><g><svg viewBox="0 0 213.1584412271571 228.17129940537035" height="191.55844122715712" width="178.95457860956438"><g transform="matrix(1,0,0,1,0,103.00117139251464)"><svg viewBox="0 0 213.1584412271571 125.1701280128557" height="125.1701280128557" width="213.1584412271571"><g id="textblocktransform"><svg viewBox="0 0 213.1584412271571 125.1701280128557" height="125.1701280128557" width="213.1584412271571" id="textblock"><g><svg viewBox="0 0 213.1584412271571 77.68654100967255" height="77.68654100967255" width="213.1584412271571"><g transform="matrix(1,0,0,1,0,0)"><svg width="213.1584412271571" viewBox="3.0999999046325684 -36.099998474121094 133.33999633789062 48.599998474121094" height="77.68654100967255" data-palette-color="#ffffff"><path d="M32-18.1Q33-18.1 33.68-17.55 34.35-17 34.35-15.8L34.35-15.8Q34.35-14.65 33.68-14.1 33-13.55 32-13.55L32-13.55 31.35-13.55 31.65-2.35Q31.7-1.25 31.05-0.6 30.4 0.05 29.2 0.05L29.2 0.05Q28.05 0.05 27.38-0.55 26.7-1.15 26.65-2.2L26.65-2.2 26.3-13.65 11.1-13.9 10.1-1.5Q9.9 0.3 7.6 0.3L7.6 0.3Q4.9 0.3 5.1-1.85L5.1-1.85 6.05-14 5.3-14Q4.4-14 3.75-14.6 3.1-15.2 3.1-16.25L3.1-16.25Q3.1-17.35 3.75-17.93 4.4-18.5 5.45-18.5L5.45-18.5 6.4-18.5 7.65-33.95Q7.7-34.95 8.43-35.52 9.15-36.1 10.25-36.1L10.25-36.1Q11.55-36.1 12.15-35.4 12.75-34.7 12.65-33.6L12.65-33.6 11.45-18.4 26.15-18.2 25.7-33.7Q25.7-34.8 26.35-35.45 27-36.1 28.2-36.1L28.2-36.1Q29.35-36.1 30.03-35.48 30.7-34.85 30.75-33.9L30.75-33.9 31.2-18.1 32-18.1ZM52.25 0.1Q46.35 0.1 42.62-3.03 38.9-6.15 38.9-12.4L38.9-12.4Q38.9-16.35 40.47-19.4 42.05-22.45 44.97-24.15 47.9-25.85 51.9-25.85L51.9-25.85Q55.8-25.85 58.87-24.2 61.95-22.55 63.67-19.48 65.4-16.4 65.4-12.3L65.4-12.3Q65.4-6.3 61.8-3.1 58.2 0.1 52.25 0.1L52.25 0.1ZM52.15-3.85Q55.85-3.85 58.15-6.03 60.45-8.2 60.45-12.4L60.45-12.4Q60.45-15.1 59.42-17.28 58.4-19.45 56.47-20.68 54.55-21.9 52.05-21.9L52.05-21.9Q48.35-21.9 46.12-19.33 43.9-16.75 43.9-12.45L43.9-12.45Q43.9-8.05 46.25-5.95 48.6-3.85 52.15-3.85L52.15-3.85ZM83.35-25.5Q87.6-25.5 89.82-22.48 92.05-19.45 92.05-13.45L92.05-13.45 92.05-1.9Q92.05-0.95 91.4-0.48 90.75 0 89.65 0L89.65 0Q88.55 0 87.8-0.45 87.05-0.9 87.05-1.8L87.05-1.8 87.1-13.5Q87.1-17.65 86.17-19.53 85.25-21.4 82.9-21.4L82.9-21.4Q78.4-21.4 77.05-14.2L77.05-14.2Q76.6-12 76.6-8.9L76.6-8.9 76.65-1.8Q76.65-0.9 76-0.43 75.35 0.05 74.25 0.05L74.25 0.05Q73.05 0.05 72.37-0.48 71.7-1 71.7-1.8L71.7-1.8Q71.7-6.8 71.5-13.4L71.5-13.4Q71.4-17.3 71.4-18.8L71.4-18.8Q71.35-19.9 71.07-20.53 70.8-21.15 70.05-22.4L70.05-22.4Q69.85-22.9 69.85-23.25L69.85-23.25Q69.85-24 70.7-24.65 71.55-25.3 72.35-25.3L72.35-25.3Q73.2-25.3 74-24.2L74-24.2Q75.35-22.25 75.35-20.65L75.35-20.65 75.35-20.05Q76.25-22.4 78.17-23.95 80.1-25.5 83.35-25.5L83.35-25.5ZM121.34-8.55L121.54-7.15Q121.94-4.5 122.12-3 122.29-1.5 122.29-0.1L122.29-0.1Q122.29 3.6 120.77 6.45 119.24 9.3 116.47 10.9 113.69 12.5 110.04 12.5L110.04 12.5Q107.24 12.5 104.89 11.4 102.54 10.3 101.14 8.4 99.74 6.5 99.74 4.3L99.74 4.3Q99.74 2.4 102.09 2.4L102.09 2.4Q103.59 2.4 103.89 3.85L103.89 3.85Q104.39 6.15 105.97 7.28 107.54 8.4 109.94 8.4L109.94 8.4Q113.54 8.4 115.47 6.2 117.39 4 117.39-0.2L117.39-0.2Q117.39-1.55 117.14-3.2L117.14-3.2Q115.99-1.8 114.02-0.93 112.04-0.05 109.49-0.05L109.49-0.05Q105.89-0.05 103.12-1.73 100.34-3.4 98.84-6.25 97.34-9.1 97.34-12.45L97.34-12.45Q97.34-15.9 98.82-18.85 100.29-21.8 103.02-23.53 105.74-25.25 109.24-25.25L109.24-25.25Q113.14-25.25 115.39-23.3L115.39-23.3Q115.59-23.9 116.29-25.5L116.29-25.5Q116.79-26.5 117.94-26.5L117.94-26.5Q118.89-26.5 119.77-25.98 120.64-25.45 120.69-24.65L120.69-24.65Q120.69-24.3 120.64-24.15L120.64-24.15Q119.79-21.45 119.64-20.75L119.64-20.75 121.34-8.55ZM109.74-4.25Q111.94-4.25 114.02-5.45 116.09-6.65 116.49-8.05L116.49-8.05Q116.19-10.9 115.34-15.9L115.34-15.9Q115.29-16.4 114.94-18.45L114.94-18.45Q114.49-19.4 112.97-20.25 111.44-21.1 109.54-21.1L109.54-21.1Q107.44-21.1 105.79-19.98 104.14-18.85 103.22-16.88 102.29-14.9 102.29-12.5L102.29-12.5Q102.29-9.05 104.22-6.65 106.14-4.25 109.74-4.25L109.74-4.25ZM132.79-27.55Q131.24-27.55 130.24-28.58 129.24-29.6 129.24-31.15L129.24-31.15Q129.24-32.65 130.27-33.65 131.29-34.65 132.89-34.65L132.89-34.65Q134.49-34.65 135.47-33.7 136.44-32.75 136.44-31.2L136.44-31.2Q136.44-29.65 135.42-28.6 134.39-27.55 132.79-27.55L132.79-27.55ZM132.09-0.3Q130.94-0.3 130.24-0.85 129.54-1.4 129.54-2.4L129.54-2.4 130.04-22.7Q130.04-23.7 130.74-24.28 131.44-24.85 132.54-24.85L132.54-24.85Q133.64-24.85 134.37-24.25 135.09-23.65 135.09-22.65L135.09-22.65 134.59-2.35Q134.54-1.35 133.87-0.83 133.19-0.3 132.09-0.3L132.09-0.3Z" opacity="1" transform="matrix(1,0,0,1,0,0)" fill="#ffffff" class="wordmark-text-0" data-fill-palette-color="quaternary" id="text-0"></path></svg></g></svg></g><g transform="matrix(1,0,0,1,0,96.02646886507202)"><svg viewBox="0 0 213.1584412271571 29.14365914778369" height="29.14365914778369" width="213.1584412271571"><g transform="matrix(1,0,0,1,0,0)"><svg width="213.1584412271571" viewBox="1.75 -32.70000076293945 322.5199890136719 44.099998474121094" height="29.14365914778369" data-palette-color="#ffffff"><path d="M36.25 0L26.05 0 26.05-0.9 28.4-0.9Q29.1-0.9 29.1-1.5L29.1-1.5 29.1-27.05 18.65 0 16.95 0 6.5-26.3 6.5-1.6Q6.5-0.9 7.2-0.9L7.2-0.9 9.55-0.9 9.55 0 1.75 0 1.75-0.9 4.1-0.9Q4.8-0.9 4.8-1.6L4.8-1.6 4.8-30Q4.8-30.6 4.1-30.6L4.1-30.6 1.75-30.6 1.75-31.5 8.9-31.5 19.1-5.65 29.1-31.5 36.25-31.5 36.25-30.6 33.9-30.6Q33.2-30.6 33.2-29.9L33.2-29.9 33.2-1.5Q33.2-0.9 33.9-0.9L33.9-0.9 36.25-0.9 36.25 0ZM52.5-20.7L52.5-21.6 58.85-21.6 58.85-20.7 57-20.7Q56.55-20.7 56.3-20L56.3-20 47.65 3.15Q47.5 3.6 47.15 4.5L47.15 4.5 46.6 5.85Q46.45 6.3 46.15 7.08 45.85 7.85 45.65 8.28 45.45 8.7 45.15 9.3L45.15 9.3Q44.8 10.05 44.15 10.73 43.5 11.4 42.8 11.4 42.1 11.4 41.32 10.53 40.55 9.65 40.4 8.65L40.4 8.65Q44.95 6.7 46.6 2.15L46.6 2.15 47.45-0.15 40.05-20Q39.8-20.7 39.35-20.7L39.35-20.7 37.5-20.7 37.5-21.6 46-21.6 46-20.7 43.5-20.7 49.25-4.9 55.05-20.7 52.5-20.7ZM76.57-3.75Q72.59-8.1 72.59-15.75 72.59-23.4 76.57-27.75 80.54-32.1 86.92-32.1 93.29-32.1 97.27-27.75 101.24-23.4 101.24-15.75 101.24-8.1 97.27-3.75 93.29 0.6 86.92 0.6 80.54 0.6 76.57-3.75ZM79.72-26.75Q76.84-22.7 76.84-15.75 76.84-8.8 79.72-4.75 82.59-0.7 86.89-0.7 91.19-0.7 94.09-4.75 96.99-8.8 96.99-15.75 96.99-22.7 94.09-26.75 91.19-30.8 86.89-30.8 82.59-30.8 79.72-26.75ZM125.59-14.6L125.59-14.6 125.59-1.5Q125.59-0.9 126.29-0.9L126.29-0.9 128.64-0.9 128.64 0 119.64 0 119.64-0.9 121.29-0.9Q121.99-0.9 121.99-1.5L121.99-1.5 121.99-15.25Q121.99-17.8 120.87-19.03 119.74-20.25 117.89-20.25L117.89-20.25Q115.29-20.25 113.59-17.18 111.89-14.1 111.89-8.35L111.89-8.35 111.89-1.6Q111.89-0.9 112.59-0.9L112.59-0.9 114.24-0.9 114.24 0 105.24 0 105.24-0.9 107.59-0.9Q108.29-0.9 108.29-1.5L108.29-1.5 108.29-20Q108.29-20.7 107.59-20.7L107.59-20.7 105.24-20.7 105.24-21.6 107.69-21.6Q110.69-21.6 111.89-21.9L111.89-21.9 111.89-15.1Q113.59-22.2 119.39-22.2L119.39-22.2Q121.99-22.2 123.79-20.33 125.59-18.45 125.59-14.6ZM134.94-1.6L134.94-1.6 134.94-30.8Q134.94-31.5 134.24-31.5L134.24-31.5 131.89-31.5 131.89-32.4 134.34-32.4Q137.34-32.4 138.54-32.7L138.54-32.7 138.54-1.6Q138.54-0.9 139.24-0.9L139.24-0.9 141.59-0.9 141.59 0 131.89 0 131.89-0.9 134.24-0.9Q134.94-0.9 134.94-1.6ZM148.39-1.6L148.39-1.6 148.39-20Q148.39-20.7 147.69-20.7L147.69-20.7 145.34-20.7 145.34-21.6 147.78-21.6Q150.78-21.6 151.99-21.9L151.99-21.9 151.99-1.5Q151.99-0.9 152.69-0.9L152.69-0.9 155.03-0.9 155.03 0 145.34 0 145.34-0.9 147.69-0.9Q148.39-0.9 148.39-1.6ZM148.51-27.13Q147.84-27.8 147.84-28.8 147.84-29.8 148.51-30.48 149.19-31.15 150.19-31.15 151.19-31.15 151.86-30.48 152.53-29.8 152.53-28.8 152.53-27.8 151.86-27.13 151.19-26.45 150.19-26.45 149.19-26.45 148.51-27.13ZM179.13-14.6L179.13-14.6 179.13-1.5Q179.13-0.9 179.83-0.9L179.83-0.9 182.18-0.9 182.18 0 173.18 0 173.18-0.9 174.83-0.9Q175.53-0.9 175.53-1.5L175.53-1.5 175.53-15.25Q175.53-17.8 174.41-19.03 173.28-20.25 171.43-20.25L171.43-20.25Q168.83-20.25 167.13-17.18 165.43-14.1 165.43-8.35L165.43-8.35 165.43-1.6Q165.43-0.9 166.13-0.9L166.13-0.9 167.78-0.9 167.78 0 158.78 0 158.78-0.9 161.13-0.9Q161.83-0.9 161.83-1.5L161.83-1.5 161.83-20Q161.83-20.7 161.13-20.7L161.13-20.7 158.78-20.7 158.78-21.6 161.23-21.6Q164.23-21.6 165.43-21.9L165.43-21.9 165.43-15.1Q167.13-22.2 172.93-22.2L172.93-22.2Q175.53-22.2 177.33-20.33 179.13-18.45 179.13-14.6ZM196.03-22.2L196.03-22.2Q199.48-22.2 201.48-19.9 203.48-17.6 203.48-13.15L203.48-13.15Q203.48-12.25 203.38-11.15L203.38-11.15 189.73-11.15 189.73-10.8Q189.73-6.05 191.46-3.33 193.18-0.6 195.91-0.6 198.63-0.6 200.38-2 202.13-3.4 202.78-6L202.78-6 203.73-5.8Q203.13-2.75 200.98-1.07 198.83 0.6 196.03 0.6L196.03 0.6Q191.68 0.6 188.81-2.45 185.93-5.5 185.93-10.78 185.93-16.05 188.83-19.13 191.73-22.2 196.03-22.2ZM200.03-14.85L200.03-14.85Q200.03-21 195.43-21L195.43-21Q193.13-21 191.5-18.5 189.88-16 189.78-12.15L189.78-12.15 199.83-12.15Q200.03-13.85 200.03-14.85ZM224.2-3.75Q220.23-8.1 220.23-15.75 220.23-23.4 224.2-27.75 228.18-32.1 234.55-32.1 240.93-32.1 244.9-27.75 248.88-23.4 248.88-15.75 248.88-8.1 244.9-3.75 240.93 0.6 234.55 0.6 228.18 0.6 224.2-3.75ZM227.35-26.75Q224.48-22.7 224.48-15.75 224.48-8.8 227.35-4.75 230.23-0.7 234.53-0.7 238.83-0.7 241.73-4.75 244.63-8.8 244.63-15.75 244.63-22.7 241.73-26.75 238.83-30.8 234.53-30.8 230.23-30.8 227.35-26.75ZM264.92-11.2L264.92-11.65 264.97-13.4 264.97-15.15Q264.97-21 261.17-21L261.17-21Q259.52-21 258.6-19.88 257.67-18.75 257.67-17.25 257.67-15.75 258.07-14.65L258.07-14.65Q257.22-13.9 255.72-13.9 254.22-13.9 254.22-16.35 254.22-18.8 256.15-20.5 258.07-22.2 261.62-22.2L261.62-22.2Q268.57-22.2 268.57-14L268.57-14 268.57-3.75Q268.57-1.05 270.07-1.05L270.07-1.05Q270.77-1.05 271.3-1.7 271.82-2.35 271.82-3.2 271.82-4.05 271.67-4.8L271.67-4.8 272.62-4.95Q272.82-4.2 272.82-3.3L272.82-3.3Q272.82-1.5 271.75-0.45 270.67 0.6 268.92 0.6 267.17 0.6 266.07-0.83 264.97-2.25 264.97-5.1L264.97-5.1 264.97-6Q264.12-2.6 262.27-1 260.42 0.6 258 0.6 255.57 0.6 254.1-0.93 252.62-2.45 252.62-4.98 252.62-7.5 254.97-9.47 257.32-11.45 261.72-11.45L261.72-11.45Q262.67-11.45 264.92-11.2L264.92-11.2ZM259.12-1.3L259.12-1.3Q261.22-1.3 262.9-3.68 264.57-6.05 264.87-10.35L264.87-10.35Q264.37-10.4 263.47-10.4L263.47-10.4Q259.47-10.4 257.75-8.72 256.02-7.05 256.02-4.85L256.02-4.85Q256.02-3.4 256.87-2.35 257.72-1.3 259.12-1.3ZM282.07-13.55L282.07-13.55 287.27-11.6Q289.12-10.9 290.1-9.47 291.07-8.05 291.07-6.3L291.07-6.3Q291.07-3.6 288.92-1.5 286.77 0.6 283.15 0.6 279.52 0.6 276.32-0.75L276.32-0.75Q276.62-1.95 276.62-4.95L276.62-4.95 276.62-6.95 277.52-6.95 277.87-4.35Q278.32-0.6 283.12-0.6L283.12-0.6Q285.27-0.6 286.7-1.93 288.12-3.25 288.12-4.95L288.12-4.95Q288.12-7.3 285.27-8.35L285.27-8.35 280.07-10.3Q278.32-10.95 277.42-12.35 276.52-13.75 276.52-15.5L276.52-15.5Q276.52-18.15 278.42-20.18 280.32-22.2 283.2-22.2 286.07-22.2 289.67-20.85L289.67-20.85Q289.37-19.65 289.37-16.65L289.37-16.65 289.37-14.65 288.47-14.65 288.12-17.25Q287.72-20.85 283.57-20.85L283.57-20.85Q281.72-20.85 280.52-19.7 279.32-18.55 279.32-17L279.32-17Q279.32-14.6 282.07-13.55ZM298.62-1.6L298.62-1.6 298.62-20Q298.62-20.7 297.92-20.7L297.92-20.7 295.57-20.7 295.57-21.6 298.02-21.6Q301.02-21.6 302.22-21.9L302.22-21.9 302.22-1.5Q302.22-0.9 302.92-0.9L302.92-0.9 305.27-0.9 305.27 0 295.57 0 295.57-0.9 297.92-0.9Q298.62-0.9 298.62-1.6ZM298.74-27.13Q298.07-27.8 298.07-28.8 298.07-29.8 298.74-30.48 299.42-31.15 300.42-31.15 301.42-31.15 302.09-30.48 302.77-29.8 302.77-28.8 302.77-27.8 302.09-27.13 301.42-26.45 300.42-26.45 299.42-26.45 298.74-27.13ZM315.27-13.55L315.27-13.55 320.47-11.6Q322.32-10.9 323.29-9.47 324.27-8.05 324.27-6.3L324.27-6.3Q324.27-3.6 322.12-1.5 319.97 0.6 316.34 0.6 312.72 0.6 309.52-0.75L309.52-0.75Q309.82-1.95 309.82-4.95L309.82-4.95 309.82-6.95 310.72-6.95 311.07-4.35Q311.52-0.6 316.32-0.6L316.32-0.6Q318.47-0.6 319.89-1.93 321.32-3.25 321.32-4.95L321.32-4.95Q321.32-7.3 318.47-8.35L318.47-8.35 313.27-10.3Q311.52-10.95 310.62-12.35 309.72-13.75 309.72-15.5L309.72-15.5Q309.72-18.15 311.62-20.18 313.52-22.2 316.39-22.2 319.27-22.2 322.87-20.85L322.87-20.85Q322.57-19.65 322.57-16.65L322.57-16.65 322.57-14.65 321.67-14.65 321.32-17.25Q320.92-20.85 316.77-20.85L316.77-20.85Q314.92-20.85 313.72-19.7 312.52-18.55 312.52-17L312.52-17Q312.52-14.6 315.27-13.55Z" opacity="1" transform="matrix(1,0,0,1,0,0)" fill="#ffffff" class="slogan-text-1" data-fill-palette-color="quaternary" id="text-1"></path></svg></g></svg></g></svg></g></svg></g><g transform="matrix(1,0,0,1,40.713262274387006,0)"><svg viewBox="0 0 131.7319166783831 84.66124353711518" height="84.66124353711518" width="131.7319166783831"><g><svg xmlns="http://www.w3.org/2000/svg" data-name="Layer 1" viewBox="7.036063194274902 27.592329025268555 85 54.627655029296875" x="0" y="0" height="84.66124353711518" width="131.7319166783831" class="icon-icon-0" data-fill-palette-color="quaternary" id="icon-0"><path d="M83.119 30.057c-2.668-0.535-4.752 0.155-6.193 2.054a13.385 13.385 0 0 0-2.071 5.028 15.241 15.241 0 0 0-5.161-6.04c-2.919-2.138-5.981-3.206-7.988-2.786-4.487 0.938-6.396 9.882-6.204 14.625a0.292 0.292 0 0 0 0.361 0.271l6.844-1.679a0.292 0.292 0 0 0 0.219-0.236l0.549-3.322 0.226 2.964a0.292 0.292 0 0 0 0.361 0.262l9.127-2.239c-1.426 1.534-3.513 5.228-5.309 14.127-0.015 0.036-1.161 6.503-1.65 10.638-0.003 0.014-0.051 0.434-0.074 0.631-1.239 4.479-8.192 7.92-16.557 7.92-8.649 0-15.788-3.678-16.664-8.38-0.002-0.014-0.106-1.077-0.13-1.119-1.995-16.615-5.035-22.42-6.921-24.448l7.784 1.91a0.292 0.292 0 0 0 0.36-0.255l0.328-3.278 0.374 3.594a0.292 0.292 0 0 0 0.22 0.254l8.259 2.026a0.292 0.292 0 0 0 0.362-0.272A25.476 25.476 0 0 0 42.204 33.538c-1.503-4.318-3.46-5.567-4.837-5.856-2.008-0.42-5.07 0.647-7.989 2.786a15.238 15.238 0 0 0-5.162 6.042 13.275 13.275 0 0 0-2.153-5.138c-1.437-1.816-3.493-2.471-6.11-1.945-5.797 1.164-9.146 8.962-8.905 13.819a0.292 0.292 0 0 0 0.383 0.263l6.956-2.272a18.6 18.6 0 0 0 0.794 6.391 0.292 0.292 0 0 0 0.497 0.099l2.139-2.452a0.293 0.293 0 0 0 0.071-0.188l0.016-1.21 0.074 0.486a0.292 0.292 0 0 0 0.509 0.149L24.077 38.096a59.458 59.458 0 0 1 2.146 8.46c0.086 0.361 0.286 1.595 0.395 2.276A121.908 121.908 0 0 1 27.122 80.718a0.787 0.787 0 0 0 0.782 0.871h5.565a0.788 0.788 0 0 0 0.785-0.826c-0.075-1.514-0.73-11.146-1.01-13.967a14.151 14.151 0 0 0 4.182 4.797 20.427 20.427 0 0 0 12.252 4.001 20.116 20.116 0 0 0 12.175-4.002 14.173 14.173 0 0 0 4.019-4.6c-0.282 2.782-0.975 12.781-1.07 14.712a0.492 0.492 0 0 0 0.491 0.516h6.204a0.491 0.491 0 0 0 0.488-0.545 122.245 122.245 0 0 1 0.455-32.126 64.285 64.285 0 0 1 2.555-10.822L79.957 44.434a0.292 0.292 0 0 0 0.504-0.124l0.548-2.308-0.061 3.436a0.292 0.292 0 0 0 0.072 0.197l2.374 2.723a0.292 0.292 0 0 0 0.497-0.1 18.599 18.599 0 0 0 0.795-6.39l6.956 2.272a0.292 0.292 0 0 0 0.382-0.263C92.265 39.019 88.916 31.221 83.119 30.057Zm-59.4 7.561l-0.001 0-5.257 6.034-0.513-3.408a0.292 0.292 0 0 0-0.581 0.04l-0.061 4.688L15.584 46.947a22.226 22.226 0 0 1-0.355-8.447 12.382 12.382 0 0 1 1.901-5.441c0.055-0.07 0.111-0.139 0.168-0.202q0.068-0.076 0.136-0.147l0.041-0.043c0.031-0.032 0.061-0.064 0.092-0.093 0.017-0.017 0.034-0.033 0.05-0.049 0.027-0.026 0.054-0.052 0.08-0.077 0.018-0.017 0.036-0.033 0.054-0.049 0.025-0.023 0.05-0.046 0.075-0.068 0.018-0.016 0.036-0.031 0.055-0.046 0.024-0.02 0.048-0.041 0.072-0.06 0.018-0.015 0.037-0.029 0.055-0.044 0.023-0.018 0.046-0.036 0.069-0.053l0.055-0.04c0.023-0.016 0.045-0.032 0.068-0.047l0.055-0.036q0.033-0.021 0.066-0.041l0.054-0.032c0.022-0.012 0.044-0.024 0.065-0.035 0.018-0.009 0.035-0.019 0.053-0.028 0.022-0.011 0.043-0.021 0.065-0.03 0.017-0.008 0.034-0.016 0.051-0.023 0.022-0.009 0.043-0.017 0.065-0.025 0.016-0.006 0.033-0.013 0.049-0.018 0.022-0.008 0.044-0.014 0.067-0.02 0.015-0.004 0.031-0.009 0.046-0.014 0.024-0.006 0.047-0.011 0.07-0.015l0.041-0.009c0.029-0.005 0.057-0.008 0.085-0.011l0.024-0.003q0.054-0.005 0.108-0.005c0.037 0 0.075 0.002 0.111 0.006 1.066 0.104 2.015 1.691 3.115 3.529 0.23 0.384 0.463 0.774 0.707 1.167 0.02 0.033 0.042 0.066 0.062 0.099 0.1 0.161 0.201 0.321 0.305 0.483 0.037 0.057 0.075 0.114 0.113 0.172 0.078 0.119 0.155 0.239 0.236 0.358Zm0.962 0.438c0.697 0.446 2.012 1.734 3.444 5.429a54.986 54.986 0 0 1 2.383 8.533l-3.673-5.37A61.584 61.584 0 0 0 24.681 38.056Zm2.51 10.659c-0.037-0.228-0.074-0.452-0.111-0.673L30.765 53.427a0.285 0.285 0 0 0 0.029 0.033c0.567 2.97 1.036 6.153 1.425 9.393l-4.001-4.965C27.971 54.276 27.589 51.201 27.191 48.715ZM33.671 80.792a0.204 0.204 0 0 1-0.203 0.213h-5.564a0.2 0.2 0 0 1-0.15-0.067 0.204 0.204 0 0 1-0.051-0.158c0.4-3.754 0.628-7.278 0.729-10.559l4.987 6.089C33.516 77.851 33.6 79.352 33.671 80.792Zm-0.318-5.483l-4.863-5.939a0.291 0.291 0 0 0-0.034-0.033c0.093-3.835 0.011-7.324-0.173-10.437l4.046 5.021q0.023 0.175 0.054 0.35C32.8 67.985 33.115 71.743 33.353 75.309ZM61.498 71.128a19.529 19.529 0 0 1-11.82 3.882 20.117 20.117 0 0 1-11.9-3.883 14.777 14.777 0 0 1-3.149-3.17 13.407 13.407 0 0 0 2.773 2.039A25.199 25.199 0 0 0 49.599 72.859a25.199 25.199 0 0 0 12.197-2.863 13.279 13.279 0 0 0 2.871-2.135A14.504 14.504 0 0 1 61.498 71.128Zm5.39-7.348l3.941-4.89c-0.203 3.116-0.303 6.624-0.226 10.493l-4.842 5.912C66.027 71.416 66.848 64.143 66.888 63.78Zm4.33 17.856H65.545a0.147 0.147 0 0 1-0.147-0.155q0.134-2.706 0.296-5.183l4.929-6.018c0.092 3.456 0.325 7.19 0.752 11.181A0.158 0.158 0 0 1 71.218 81.636Zm0.649-32.203c-0.369 2.318-0.724 5.145-0.967 8.438l-3.964 4.919c0.463-3.728 0.975-6.862 1.501-9.494l3.687-5.389Q71.993 48.644 71.867 49.433Zm0.521-2.947l-3.641 5.322a52.428 52.428 0 0 1 2.185-7.652c1.438-3.726 2.76-5.022 3.459-5.469A59.838 59.838 0 0 0 72.388 46.486Zm12.268-5.242c-0.211-3.475-1.164-6.721-2.448-8.148a3.096 3.096 0 0 0-2.468-1.345c-1.359 0.132-2.33 1.755-3.559 3.81-0.184 0.308-0.372 0.62-0.564 0.934a11.621 11.621 0 0 1 1.774-4.031c1.313-1.729 3.149-2.329 5.613-1.834 5.346 1.073 8.493 8.165 8.448 12.833Z" fill="#ffffff" data-fill-palette-color="quaternary"></path></svg></g></svg></g><g></g></svg></g></svg></g></svg></g></svg></g><defs></defs></svg><rect width="333.90454557049503" height="333.90454557049503" fill="none" stroke="none" visibility="hidden"></rect></g></svg></g></svg>